<?xml version="1.0" encoding="UTF-8"?>
<!DOCTYPE svg PUBLIC "-//W3C//DTD SVG 1.1//EN" "http://www.w3.org/Graphics/SVG/1.1/DTD/svg11.dtd">
<svg xmlns="http://www.w3.org/2000/svg" version="1.1" width="512px" height="512px" style="shape-rendering:geometricPrecision; text-rendering:geometricPrecision; image-rendering:optimizeQuality; fill-rule:evenodd; clip-rule:evenodd" xmlns:xlink="http://www.w3.org/1999/xlink">
<g><path style="opacity:0.993" fill="#ffeff1" d="M 232.5,-0.5 C 247.833,-0.5 263.167,-0.5 278.5,-0.5C 324.488,3.93698 366.155,19.6036 403.5,46.5C 304.335,47.4994 205.001,47.8328 105.5,47.5C 143.424,20.0773 185.758,4.07733 232.5,-0.5 Z"/></g>
<g><path style="opacity:0.997" fill="#ffebee" d="M 403.5,46.5 C 418.95,56.272 432.617,68.272 444.5,82.5C 318.5,82.5 192.5,82.5 66.5,82.5C 77.9836,69.0096 90.9836,57.3429 105.5,47.5C 205.001,47.8328 304.335,47.4994 403.5,46.5 Z"/></g>
<g><path style="opacity:0.998" fill="#ffe8ec" d="M 66.5,82.5 C 192.5,82.5 318.5,82.5 444.5,82.5C 453.278,91.2788 460.945,100.945 467.5,111.5C 326.167,111.5 184.833,111.5 43.5,111.5C 50.0553,100.945 57.722,91.2788 66.5,82.5 Z"/></g>
<g><path style="opacity:0.998" fill="#ffe5e9" d="M 43.5,111.5 C 184.833,111.5 326.167,111.5 467.5,111.5C 478.213,126.251 486.88,142.251 493.5,159.5C 448.5,159.5 403.5,159.5 358.5,159.5C 355.372,156.213 352.039,153.213 348.5,150.5C 341.411,143.951 333.078,139.451 323.5,137C 317.514,136.091 311.514,135.257 305.5,134.5C 303.1,130.796 299.767,128.296 295.5,127C 268.833,126.333 242.167,126.333 215.5,127C 211.269,128.284 207.936,130.784 205.5,134.5C 188.968,134.339 174.635,139.672 162.5,150.5C 158.518,152.817 155.185,155.817 152.5,159.5C 107.5,159.5 62.5,159.5 17.5,159.5C 24.12,142.251 32.7867,126.251 43.5,111.5 Z"/></g>
<g><path style="opacity:1" fill="#fd4185" d="M 348.5,150.5 C 286.5,151.833 224.5,151.833 162.5,150.5C 174.635,139.672 188.968,134.339 205.5,134.5C 207.936,130.784 211.269,128.284 215.5,127C 242.167,126.333 268.833,126.333 295.5,127C 299.767,128.296 303.1,130.796 305.5,134.5C 311.514,135.257 317.514,136.091 323.5,137C 333.078,139.451 341.411,143.951 348.5,150.5 Z"/></g>
<g><path style="opacity:1" fill="#fd4c87" d="M 162.5,150.5 C 224.5,151.833 286.5,151.833 348.5,150.5C 352.039,153.213 355.372,156.213 358.5,159.5C 358.733,161.062 359.4,162.395 360.5,163.5C 353.913,165.461 346.913,166.128 339.5,165.5C 329.865,156.788 318.532,152.955 305.5,154C 302.761,157.876 299.095,160.543 294.5,162C 268.5,162.667 242.5,162.667 216.5,162C 211.905,160.543 208.239,157.876 205.5,154C 192.354,152.549 181.021,156.382 171.5,165.5C 164.087,166.128 157.087,165.461 150.5,163.5C 151.6,162.395 152.267,161.062 152.5,159.5C 155.185,155.817 158.518,152.817 162.5,150.5 Z"/></g>
<g><path style="opacity:0.998" fill="#ffe1e6" d="M 17.5,159.5 C 62.5,159.5 107.5,159.5 152.5,159.5C 152.267,161.062 151.6,162.395 150.5,163.5C 145.794,170.577 142.461,178.244 140.5,186.5C 96.5,186.5 52.5,186.5 8.5,186.5C 10.9051,177.285 13.9051,168.285 17.5,159.5 Z"/></g>
<g><path style="opacity:1" fill="#ffe1e6" d="M 339.5,165.5 C 345.315,171.463 349.315,178.463 351.5,186.5C 287.5,186.5 223.5,186.5 159.5,186.5C 161.685,178.463 165.685,171.463 171.5,165.5C 181.021,156.382 192.354,152.549 205.5,154C 208.239,157.876 211.905,160.543 216.5,162C 242.5,162.667 268.5,162.667 294.5,162C 299.095,160.543 302.761,157.876 305.5,154C 318.532,152.955 329.865,156.788 339.5,165.5 Z"/></g>
<g><path style="opacity:0.998" fill="#ffe1e6" d="M 358.5,159.5 C 403.5,159.5 448.5,159.5 493.5,159.5C 497.095,168.285 500.095,177.285 502.5,186.5C 458.5,186.5 414.5,186.5 370.5,186.5C 368.512,178.195 365.178,170.529 360.5,163.5C 359.4,162.395 358.733,161.062 358.5,159.5 Z"/></g>
<g><path style="opacity:1" fill="#fd5586" d="M 150.5,163.5 C 157.087,165.461 164.087,166.128 171.5,165.5C 165.685,171.463 161.685,178.463 159.5,186.5C 158.698,187.952 158.198,189.618 158,191.5C 157.501,196.823 157.334,202.156 157.5,207.5C 151.674,208.747 146.341,211.081 141.5,214.5C 140.508,207.352 140.175,200.019 140.5,192.5C 140.5,190.5 140.5,188.5 140.5,186.5C 142.461,178.244 145.794,170.577 150.5,163.5 Z"/></g>
<g><path style="opacity:1" fill="#fd5587" d="M 360.5,163.5 C 365.178,170.529 368.512,178.195 370.5,186.5C 370.5,188.167 370.5,189.833 370.5,191.5C 370.825,199.352 370.492,207.018 369.5,214.5C 364.78,211.224 359.613,208.891 354,207.5C 353.952,200.256 353.118,193.256 351.5,186.5C 349.315,178.463 345.315,171.463 339.5,165.5C 346.913,166.128 353.913,165.461 360.5,163.5 Z"/></g>
<g><path style="opacity:0.999" fill="#ffdde2" d="M 8.5,186.5 C 52.5,186.5 96.5,186.5 140.5,186.5C 140.5,188.5 140.5,190.5 140.5,192.5C 139.18,200.01 139.18,207.677 140.5,215.5C 141.107,215.376 141.44,215.043 141.5,214.5C 146.341,211.081 151.674,208.747 157.5,207.5C 157.334,202.156 157.501,196.823 158,191.5C 158.198,189.618 158.698,187.952 159.5,186.5C 223.5,186.5 287.5,186.5 351.5,186.5C 353.118,193.256 353.952,200.256 354,207.5C 359.613,208.891 364.78,211.224 369.5,214.5C 369.56,215.043 369.893,215.376 370.5,215.5C 371.82,207.343 371.82,199.343 370.5,191.5C 370.5,189.833 370.5,188.167 370.5,186.5C 414.5,186.5 458.5,186.5 502.5,186.5C 506.804,201.684 509.804,217.017 511.5,232.5C 511.5,238.5 511.5,244.5 511.5,250.5C 474.167,250.5 436.833,250.5 399.5,250.5C 396.802,247.483 393.469,245.483 389.5,244.5C 388.539,246.265 388.205,248.265 388.5,250.5C 382.833,250.5 377.167,250.5 371.5,250.5C 371.737,249.209 371.404,248.209 370.5,247.5C 370.59,244.848 369.924,242.515 368.5,240.5C 361.307,227.323 350.14,221.99 335,224.5C 324.562,222.617 315.396,225.117 307.5,232C 305.18,234.478 303.514,237.311 302.5,240.5C 300.926,242.102 300.259,244.102 300.5,246.5C 299.566,247.568 299.232,248.901 299.5,250.5C 270.167,250.5 240.833,250.5 211.5,250.5C 211.768,248.901 211.434,247.568 210.5,246.5C 210.741,244.102 210.074,242.102 208.5,240.5C 206.01,233.178 201.01,228.344 193.5,226C 187.411,224.899 181.245,224.399 175,224.5C 160.273,222.281 149.44,227.614 142.5,240.5C 141.262,242.214 140.595,244.214 140.5,246.5C 139.566,247.568 139.232,248.901 139.5,250.5C 133.833,250.5 128.167,250.5 122.5,250.5C 122.795,248.265 122.461,246.265 121.5,244.5C 117.863,245.986 114.53,247.986 111.5,250.5C 74.1667,250.5 36.8333,250.5 -0.5,250.5C -0.5,244.5 -0.5,238.5 -0.5,232.5C 1.19592,217.018 4.19592,201.685 8.5,186.5 Z"/></g>
<g><path style="opacity:1" fill="#fea1b8" d="M 140.5,192.5 C 140.175,200.019 140.508,207.352 141.5,214.5C 141.44,215.043 141.107,215.376 140.5,215.5C 139.18,207.677 139.18,200.01 140.5,192.5 Z"/></g>
<g><path style="opacity:1" fill="#ffa3b9" d="M 370.5,191.5 C 371.82,199.343 371.82,207.343 370.5,215.5C 369.893,215.376 369.56,215.043 369.5,214.5C 370.492,207.018 370.825,199.352 370.5,191.5 Z"/></g>
<g><path style="opacity:1" fill="#fe6888" d="M 208.5,240.5 C 197.854,241.832 186.854,242.499 175.5,242.5C 164.146,242.499 153.146,241.832 142.5,240.5C 149.44,227.614 160.273,222.281 175,224.5C 181.245,224.399 187.411,224.899 193.5,226C 201.01,228.344 206.01,233.178 208.5,240.5 Z"/></g>
<g><path style="opacity:1" fill="#fe6888" d="M 368.5,240.5 C 357.854,241.832 346.854,242.499 335.5,242.5C 324.146,242.499 313.146,241.832 302.5,240.5C 303.514,237.311 305.18,234.478 307.5,232C 315.396,225.117 324.562,222.617 335,224.5C 350.14,221.99 361.307,227.323 368.5,240.5 Z"/></g>
<g><path style="opacity:1" fill="#fe6d88" d="M 142.5,240.5 C 153.146,241.832 164.146,242.499 175.5,242.5C 186.854,242.499 197.854,241.832 208.5,240.5C 210.074,242.102 210.741,244.102 210.5,246.5C 210.5,249.833 210.5,253.167 210.5,256.5C 187.167,256.5 163.833,256.5 140.5,256.5C 140.5,253.167 140.5,249.833 140.5,246.5C 140.595,244.214 141.262,242.214 142.5,240.5 Z"/></g>
<g><path style="opacity:1" fill="#fe6d88" d="M 302.5,240.5 C 313.146,241.832 324.146,242.499 335.5,242.5C 346.854,242.499 357.854,241.832 368.5,240.5C 369.924,242.515 370.59,244.848 370.5,247.5C 370.5,250.5 370.5,253.5 370.5,256.5C 347.167,256.5 323.833,256.5 300.5,256.5C 300.5,253.167 300.5,249.833 300.5,246.5C 300.259,244.102 300.926,242.102 302.5,240.5 Z"/></g>
<g><path style="opacity:0.997" fill="#ffd7dd" d="M -0.5,250.5 C 36.8333,250.5 74.1667,250.5 111.5,250.5C 108.569,254.025 106.402,258.025 105,262.5C 104.5,270.159 104.334,277.826 104.5,285.5C 104.656,297.822 110.323,306.489 121.5,311.5C 122.5,291.178 122.833,270.844 122.5,250.5C 128.167,250.5 133.833,250.5 139.5,250.5C 139.333,269.503 139.5,288.503 140,307.5C 140.977,309.74 141.477,312.073 141.5,314.5C 96.3302,314.168 51.3302,314.501 6.5,315.5C 3.19561,303.339 0.862276,291.005 -0.5,278.5C -0.5,269.167 -0.5,259.833 -0.5,250.5 Z"/></g>
<g><path style="opacity:1" fill="#ffd7dd" d="M 211.5,250.5 C 240.833,250.5 270.167,250.5 299.5,250.5C 299.333,269.503 299.5,288.503 300,307.5C 300.44,309.866 300.94,312.199 301.5,314.5C 270.833,314.5 240.167,314.5 209.5,314.5C 210.06,312.199 210.56,309.866 211,307.5C 211.5,288.503 211.667,269.503 211.5,250.5 Z"/></g>
<g><path style="opacity:0.998" fill="#ffd7dd" d="M 371.5,250.5 C 377.167,250.5 382.833,250.5 388.5,250.5C 388.167,270.844 388.5,291.178 389.5,311.5C 400.658,306.539 406.324,297.872 406.5,285.5C 406.666,277.826 406.5,270.159 406,262.5C 404.598,258.025 402.431,254.025 399.5,250.5C 436.833,250.5 474.167,250.5 511.5,250.5C 511.5,259.833 511.5,269.167 511.5,278.5C 509.954,290.443 507.954,302.443 505.5,314.5C 460.833,314.5 416.167,314.5 371.5,314.5C 371.5,293.167 371.5,271.833 371.5,250.5 Z"/></g>
<g><path style="opacity:1" fill="#fe7389" d="M 300.5,256.5 C 323.833,256.5 347.167,256.5 370.5,256.5C 370.5,261.5 370.5,266.5 370.5,271.5C 347.167,271.5 323.833,271.5 300.5,271.5C 300.5,266.5 300.5,261.5 300.5,256.5 Z"/></g>
<g><path style="opacity:1" fill="#fe7789" d="M 121.5,244.5 C 121.5,258.167 121.5,271.833 121.5,285.5C 115.833,285.5 110.167,285.5 104.5,285.5C 104.334,277.826 104.5,270.159 105,262.5C 106.402,258.025 108.569,254.025 111.5,250.5C 114.53,247.986 117.863,245.986 121.5,244.5 Z"/></g>
<g><path style="opacity:1" fill="#fe7989" d="M 300.5,271.5 C 323.833,271.5 347.167,271.5 370.5,271.5C 370.5,276.167 370.5,280.833 370.5,285.5C 347.167,285.5 323.833,285.5 300.5,285.5C 300.5,280.833 300.5,276.167 300.5,271.5 Z"/></g>
<g><path style="opacity:1" fill="#fe7789" d="M 389.5,244.5 C 393.469,245.483 396.802,247.483 399.5,250.5C 402.431,254.025 404.598,258.025 406,262.5C 406.5,270.159 406.666,277.826 406.5,285.5C 400.833,285.5 395.167,285.5 389.5,285.5C 389.5,271.833 389.5,258.167 389.5,244.5 Z"/></g>
<g><path style="opacity:1" fill="#fe828c" d="M 121.5,244.5 C 122.461,246.265 122.795,248.265 122.5,250.5C 122.833,270.844 122.5,291.178 121.5,311.5C 110.323,306.489 104.656,297.822 104.5,285.5C 110.167,285.5 115.833,285.5 121.5,285.5C 121.5,271.833 121.5,258.167 121.5,244.5 Z"/></g>
<g><path style="opacity:1" fill="#fe808a" d="M 300.5,285.5 C 323.833,285.5 347.167,285.5 370.5,285.5C 370.5,291.167 370.5,296.833 370.5,302.5C 347.167,302.5 323.833,302.5 300.5,302.5C 300.5,296.833 300.5,291.167 300.5,285.5 Z"/></g>
<g><path style="opacity:1" fill="#fe828c" d="M 389.5,244.5 C 389.5,258.167 389.5,271.833 389.5,285.5C 395.167,285.5 400.833,285.5 406.5,285.5C 406.324,297.872 400.658,306.539 389.5,311.5C 388.5,291.178 388.167,270.844 388.5,250.5C 388.205,248.265 388.539,246.265 389.5,244.5 Z"/></g>
<g><path style="opacity:1" fill="#fe8a8e" d="M 140.5,246.5 C 140.5,249.833 140.5,253.167 140.5,256.5C 140.5,261.5 140.5,266.5 140.5,271.5C 140.5,276.167 140.5,280.833 140.5,285.5C 140.5,291.167 140.5,296.833 140.5,302.5C 163.833,302.5 187.167,302.5 210.5,302.5C 210.5,296.833 210.5,291.167 210.5,285.5C 210.5,280.833 210.5,276.167 210.5,271.5C 210.5,266.5 210.5,261.5 210.5,256.5C 210.5,253.167 210.5,249.833 210.5,246.5C 211.434,247.568 211.768,248.901 211.5,250.5C 211.667,269.503 211.5,288.503 211,307.5C 210.56,309.866 210.06,312.199 209.5,314.5C 208.833,315.167 208.167,315.833 207.5,316.5C 186.167,316.5 164.833,316.5 143.5,316.5C 142.833,315.833 142.167,315.167 141.5,314.5C 141.477,312.073 140.977,309.74 140,307.5C 139.5,288.503 139.333,269.503 139.5,250.5C 139.232,248.901 139.566,247.568 140.5,246.5 Z"/></g>
<g><path style="opacity:1" fill="#fe808a" d="M 140.5,285.5 C 163.833,285.5 187.167,285.5 210.5,285.5C 210.5,291.167 210.5,296.833 210.5,302.5C 187.167,302.5 163.833,302.5 140.5,302.5C 140.5,296.833 140.5,291.167 140.5,285.5 Z"/></g>
<g><path style="opacity:1" fill="#fe7989" d="M 140.5,271.5 C 163.833,271.5 187.167,271.5 210.5,271.5C 210.5,276.167 210.5,280.833 210.5,285.5C 187.167,285.5 163.833,285.5 140.5,285.5C 140.5,280.833 140.5,276.167 140.5,271.5 Z"/></g>
<g><path style="opacity:1" fill="#fe7389" d="M 140.5,256.5 C 163.833,256.5 187.167,256.5 210.5,256.5C 210.5,261.5 210.5,266.5 210.5,271.5C 187.167,271.5 163.833,271.5 140.5,271.5C 140.5,266.5 140.5,261.5 140.5,256.5 Z"/></g>
<g><path style="opacity:1" fill="#fe888c" d="M 300.5,246.5 C 300.5,249.833 300.5,253.167 300.5,256.5C 300.5,261.5 300.5,266.5 300.5,271.5C 300.5,276.167 300.5,280.833 300.5,285.5C 300.5,291.167 300.5,296.833 300.5,302.5C 323.833,302.5 347.167,302.5 370.5,302.5C 370.5,307.167 370.5,311.833 370.5,316.5C 348.167,316.5 325.833,316.5 303.5,316.5C 302.833,315.833 302.167,315.167 301.5,314.5C 300.94,312.199 300.44,309.866 300,307.5C 299.5,288.503 299.333,269.503 299.5,250.5C 299.232,248.901 299.566,247.568 300.5,246.5 Z"/></g>
<g><path style="opacity:1" fill="#fe8e8c" d="M 303.5,316.5 C 325.833,316.5 348.167,316.5 370.5,316.5C 370.5,326.167 370.5,335.833 370.5,345.5C 364.402,346.117 358.735,345.45 353.5,343.5C 353.5,338.833 353.5,334.167 353.5,329.5C 342.974,331.539 332.308,332.039 321.5,331C 313.262,328.742 307.262,323.909 303.5,316.5 Z"/></g>
<g><path style="opacity:0.999" fill="#ffd1d8" d="M 141.5,314.5 C 142.167,315.167 142.833,315.833 143.5,316.5C 146.389,323.216 151.389,327.716 158.5,330C 169.825,331.974 181.158,331.974 192.5,330C 199.611,327.716 204.611,323.216 207.5,316.5C 208.167,315.833 208.833,315.167 209.5,314.5C 240.167,314.5 270.833,314.5 301.5,314.5C 302.167,315.167 302.833,315.833 303.5,316.5C 307.262,323.909 313.262,328.742 321.5,331C 332.308,332.039 342.974,331.539 353.5,329.5C 353.5,334.167 353.5,338.833 353.5,343.5C 351.977,350.21 348.643,355.877 343.5,360.5C 340.417,363.37 336.75,365.203 332.5,366C 305.833,366.333 279.167,366.667 252.5,367C 247.74,369.353 245.74,373.186 246.5,378.5C 174.665,378.167 102.998,378.501 31.5,379.5C 19.6541,359.645 11.3208,338.311 6.5,315.5C 51.3302,314.501 96.3302,314.168 141.5,314.5 Z"/></g>
<g><path style="opacity:1" fill="#fe8d8c" d="M 143.5,316.5 C 164.833,316.5 186.167,316.5 207.5,316.5C 204.611,323.216 199.611,327.716 192.5,330C 181.158,331.974 169.825,331.974 158.5,330C 151.389,327.716 146.389,323.216 143.5,316.5 Z"/></g>
<g><path style="opacity:0.997" fill="#ffd1d8" d="M 370.5,247.5 C 371.404,248.209 371.737,249.209 371.5,250.5C 371.5,271.833 371.5,293.167 371.5,314.5C 416.167,314.5 460.833,314.5 505.5,314.5C 499.919,336.982 491.585,358.316 480.5,378.5C 436.997,378.832 393.663,378.499 350.5,377.5C 356.882,373.452 361.882,368.118 365.5,361.5C 367.967,356.43 369.634,351.097 370.5,345.5C 370.5,335.833 370.5,326.167 370.5,316.5C 370.5,311.833 370.5,307.167 370.5,302.5C 370.5,296.833 370.5,291.167 370.5,285.5C 370.5,280.833 370.5,276.167 370.5,271.5C 370.5,266.5 370.5,261.5 370.5,256.5C 370.5,253.5 370.5,250.5 370.5,247.5 Z"/></g>
<g><path style="opacity:1" fill="#ff998d" d="M 353.5,343.5 C 358.735,345.45 364.402,346.117 370.5,345.5C 369.634,351.097 367.967,356.43 365.5,361.5C 357.981,361.825 350.648,361.492 343.5,360.5C 348.643,355.877 351.977,350.21 353.5,343.5 Z"/></g>
<g><path style="opacity:1" fill="#ffa28d" d="M 343.5,360.5 C 350.648,361.492 357.981,361.825 365.5,361.5C 361.882,368.118 356.882,373.452 350.5,377.5C 344.615,380.962 338.282,383.128 331.5,384C 305.167,384.667 278.833,384.667 252.5,384C 249.977,382.64 247.977,380.807 246.5,378.5C 245.74,373.186 247.74,369.353 252.5,367C 279.167,366.667 305.833,366.333 332.5,366C 336.75,365.203 340.417,363.37 343.5,360.5 Z"/></g>
<g><path style="opacity:0.998" fill="#ffcdd5" d="M 350.5,377.5 C 393.663,378.499 436.997,378.832 480.5,378.5C 475.922,387.392 470.588,395.726 464.5,403.5C 325.167,402.167 185.833,402.167 46.5,403.5C 40.502,396.181 35.502,388.181 31.5,379.5C 102.998,378.501 174.665,378.167 246.5,378.5C 247.977,380.807 249.977,382.64 252.5,384C 278.833,384.667 305.167,384.667 331.5,384C 338.282,383.128 344.615,380.962 350.5,377.5 Z"/></g>
<g><path style="opacity:0.998" fill="#ffcad2" d="M 464.5,403.5 C 452.016,421.991 437.016,438.324 419.5,452.5C 310.332,452.167 201.332,452.501 92.5,453.5C 74.6516,438.992 59.3183,422.325 46.5,403.5C 185.833,402.167 325.167,402.167 464.5,403.5 Z"/></g>
<g><path style="opacity:0.996" fill="#ffc6cf" d="M 419.5,452.5 C 407.265,463.059 393.931,472.059 379.5,479.5C 296.833,479.5 214.167,479.5 131.5,479.5C 117.407,472.395 104.407,463.728 92.5,453.5C 201.332,452.501 310.332,452.167 419.5,452.5 Z"/></g>
<g><path style="opacity:0.986" fill="#ffc3cd" d="M 131.5,479.5 C 214.167,479.5 296.833,479.5 379.5,479.5C 358.362,491.889 335.695,500.722 311.5,506C 300.424,508.254 289.424,510.087 278.5,511.5C 263.167,511.5 247.833,511.5 232.5,511.5C 206.046,508.636 180.379,502.136 155.5,492C 146.998,488.584 138.998,484.417 131.5,479.5 Z"/></g>
</svg>
